<svg width="25" height="24" viewBox="0 0 25 24" fill="none" xmlns="http://www.w3.org/2000/svg">
<path d="M3.5 11C3.5 7.25027 3.5 5.3754 4.45491 4.06107C4.76331 3.6366 5.1366 3.26331 5.56107 2.95491C6.8754 2 8.75027 2 12.5 2C16.2497 2 18.1246 2 19.4389 2.95491C19.8634 3.26331 20.2367 3.6366 20.5451 4.06107C21.5 5.3754 21.5 7.25027 21.5 11V13C21.5 16.7497 21.5 18.6246 20.5451 19.9389C20.2367 20.3634 19.8634 20.7367 19.4389 21.0451C18.1246 22 16.2497 22 12.5 22C8.75027 22 6.8754 22 5.56107 21.0451C5.1366 20.7367 4.76331 20.3634 4.45491 19.9389C3.5 18.6246 3.5 16.7497 3.5 13V11Z" stroke="#546175" stroke-width="1.5" stroke-linecap="round" stroke-linejoin="round"/>
<path d="M15.5 9.5H7.5M10.5 14.5H7.5" stroke="#546175" stroke-width="1.5" stroke-linecap="round" stroke-linejoin="round"/>
</svg>
